Coordinates
version=1
nRows=11
nColumns=36
inDegrees=yes

Units are S.I. units (second, meters, Newtons, ...)
If the header above contains a line with 'inDegrees', this indicates whether rotational values are in degrees (yes) or radians (no).

endheader
time	pelvis_tilt	pelvis_list	pelvis_rotation	pelvis_tx	pelvis_ty	pelvis_tz	hip_flexion_r	hip_adduction_r	hip_rotation_r	knee_angle_r	knee_angle_r_beta	ankle_angle_r	subtalar_angle_r	mtp_angle_r	hip_flexion_l	hip_adduction_l	hip_rotation_l	knee_angle_l	knee_angle_l_beta	ankle_angle_l	subtalar_angle_l	mtp_angle_l	lumbar_extension	lumbar_bending	lumbar_rotation	arm_flex_r	arm_add_r	arm_rot_r	elbow_flex_r	pro_sup_r	arm_flex_l	arm_add_l	arm_rot_l	elbow_flex_l	pro_sup_l
      3.27916670	    -13.68333171	     -0.52836320	      1.89606871	      0.16373162	      0.72530675	     -0.08526414	     62.30247937	     -9.50971874	      1.11041088	     84.16810206	      1.46901051	     18.21599146	    -23.32633100	     -7.49999987	     63.15638507	    -12.96197355	      2.16144439	     84.12534262	      1.46826421	     17.67290692	    -13.99924805	     -7.49999987	    -49.07779243	     -0.09607558	      3.41184880	     56.07595250	    -17.96501029	     14.16279525	     67.68378898	     81.31335074	     62.61843661	    -14.75785546	     28.32323441	     58.05412264	     64.92811147
      3.28333330	    -13.17131718	     -0.45926865	      1.87495897	      0.15906199	      0.72579495	     -0.08457928	     61.82771017	     -9.86732161	      0.90418819	     84.27941768	      1.47095333	     18.16346574	    -23.08928377	     -7.49999987	     62.54541814	    -12.88219944	      1.91431771	     84.15569857	      1.46879402	     17.84238656	    -14.03729754	     -7.49999987	    -49.38440081	     -0.00436780	      3.42356273	     54.68463894	    -18.29030460	     14.16666854	     67.09367432	     81.41061798	     61.17404585	    -15.23582039	     28.47078427	     57.41276603	     64.98188301
      3.28750000	    -12.42656628	     -0.23365550	      1.94553612	      0.15928840	      0.72899096	     -0.08221799	     61.12182706	    -10.32895853	      0.75027591	     84.35217901	      1.47222325	     19.11648107	    -21.49671042	     -7.49999987	     61.61525520	    -12.70721824	      1.62778166	     84.06429097	      1.46719866	     17.90800211	    -13.98189539	     -7.49999987	    -49.93207140	     -0.05185268	      3.12091732	     53.83155130	    -17.87085292	     13.66932806	     65.52409906	     81.21022835	     60.39910795	    -15.64618416	     28.35940338	     55.56294980	     65.02948915
      3.29166670	    -12.13902560	     -0.00992017	      2.03267371	      0.16390464	      0.72767262	     -0.08554290	     60.81232595	    -10.79452094	      0.71447744	     84.58977727	      1.47637013	     19.12653799	    -21.17807880	     -7.49999987	     61.18837471	    -12.58090126	      1.37704745	     84.14149177	      1.46854607	     17.79807583	    -13.94320508	     -7.49999987	    -49.74328344	     -0.05039964	      3.03796966	     52.27815127	    -18.10677909	     13.37919773	     64.58953191	     81.57923593	     58.80465983	    -15.77218728	     28.25128193	     54.44952502	     65.16592042
      3.29583330	    -11.87869537	      0.07872275	      2.08424779	      0.16892544	      0.72996716	     -0.08637714	     60.00142766	    -10.99489798	      0.65241881	     84.27130927	      1.47081181	     19.12516978	    -21.40651377	     -7.49999987	     60.57800166	    -12.69586557	      1.05847401	     84.00342458	      1.46613634	     17.56794700	    -13.77113816	     -7.49999987	    -49.64244331	      0.04121133	      2.98063432	     50.42772573	    -18.39819248	     13.15876372	     64.32274541	     80.88400869	     56.83782919	    -16.20903408	     27.95463045	     54.33782739	     64.92730038
      3.30000000	    -11.68153159	      0.29960464	      2.03989220	      0.16979031	      0.73528721	     -0.08679575	     59.09116013	    -11.25050663	      0.59625872	     83.62697967	      1.45956614	     19.09758773	    -21.34688424	     -7.49999987	     59.60543540	    -12.75803087	      0.54518237	     83.24006881	      1.45281327	     17.65695231	    -12.88326369	     -7.49999987	    -49.30120477	     -0.01701089	      2.82560802	     48.61666596	    -18.11486083	     12.47309453	     62.70625750	     80.49426123	     55.06996425	    -15.92778440	     26.92126662	     52.12004755	     64.71651744
      3.30416670	    -11.53812365	      0.40986121	      2.06044089	      0.17450400	      0.73842034	     -0.08954754	     58.07316322	    -11.41595468	      0.59143871	     82.86907542	      1.44633821	     18.92725763	    -21.43543103	     -7.49999987	     58.44598598	    -12.73846970	      0.18329315	     82.28185733	      1.43608933	     17.79977604	    -12.38444410	     -7.49999987	    -48.97371730	      0.05105719	      2.76658857	     46.55345087	    -18.26485702	     11.95565735	     61.73154350	     80.37401850	     52.98957537	    -15.85750688	     26.09101697	     50.94428421	     64.65258260
      3.30833330	    -11.28500876	      0.46991288	      1.99071686	      0.17775829	      0.74010818	     -0.09088604	     57.06090965	    -11.57589281	      0.49224326	     82.14017661	      1.43361653	     18.63684472	    -21.67932570	     -7.49999987	     57.27345804	    -12.69526328	     -0.12568295	     81.56495490	      1.42357702	     18.10631260	    -12.22735684	     -7.49999987	    -48.66955811	      0.13290528	      2.71952298	     44.42132223	    -18.26933561	     11.29754114	     60.80304084	     80.18963146	     50.70884208	    -15.88269624	     25.06524514	     50.19735658	     64.59434667
      3.31250000	    -11.12704421	      0.50669277	      1.89906372	      0.18030751	      0.74453136	     -0.09199111	     56.02083485	    -11.60145455	      0.43053360	     81.14009841	      1.41616187	     18.70571831	    -21.58688458	     -7.49999987	     56.29648013	    -12.46290307	     -0.25469021	     80.78347447	      1.40993761	     18.18757518	    -12.37982569	     -7.49999987	    -48.32695311	      0.21684601	      2.64796412	     42.42649796	    -18.24104375	     10.77716423	     59.65198846	     80.21896814	     48.33129367	    -15.82971070	     23.71378244	     49.56524205	     64.61176370
      3.31666670	    -10.95124918	      0.46543221	      1.72667688	      0.18142600	      0.75186764	     -0.08978817	     54.97360009	    -11.44520417	      0.26377516	     80.07295818	      1.39753676	     18.58210700	    -21.44097364	     -7.49999987	     55.32772092	    -12.30825376	     -0.23986804	     79.84783837	      1.39360768	     18.01841418	    -12.44370890	     -7.49999987	    -48.30005678	      0.27461985	      2.40093616	     40.96617666	    -17.72367821	      9.97751323	     58.14866047	     82.88820759	     45.58198325	    -15.79820987	     20.76939442	     49.80243490	     65.83045680
      3.32083330	    -10.30597147	      0.50097698	      1.57103550	      0.18371202	      0.75656966	     -0.09307175	     53.49129724	    -11.49722743	      0.10492029	     79.07098066	      1.38004896	     18.66503506	    -20.93599708	     -7.49999987	     53.94748987	    -11.89703499	     -0.08522393	     79.11092619	      1.38074614	     17.76385245	    -13.02120851	     -7.49999987	    -48.73003354	      0.34291033	      2.25160634	     39.55998780	    -17.65985621	      9.56929494	     57.22372344	     82.23012686	     43.78695151	    -16.09205599	     20.26099687	     49.38437976	     65.66296267
